#!OML:ASF F:\VICON\USERDATA\INSTALL\rory3\rory3.ASF
:FULLY-SPECIFIED
:DEGREES
63
root -10.4244 17.2451 -17.6963 -2.55941e-005 -2.55491 3.14992
lowerback 7.4557 1.3046 -2.93747
upperback 0.154832 1.51476 0.720773
thorax -4.11878 0.815543 2.23257
lowerneck -14.9224 -2.20101 -10.4018
upperneck 22.3442 -1.39764 3.99465
head 9.65555 -1.08099 2.95806
rclavicle 1.02126e-014 1.98785e-015
rhumerus -34.2365 -14.5543 -77.2677
rradius 38.3966
rwrist -0.14911
rhand -14.1058 13.3006
rfingers 7.12502
rthumb 12.0271 -16.3338
lclavicle 1.02126e-014 1.98785e-015
lhumerus -40.9587 20.9482 76.7136
lradius 26.7921
lwrist -7.01517
lhand -24.2881 18.4805
lfingers 7.12502
lthumb 2.19912 48.4489
rfemur -21.2264 -1.63544 14.5816
rtibia 74.0862
rfoot -4.1521 -6.14096
rtoes 4.58577
lfemur -17.904 -6.42887 -30.7826
ltibia 33.4418
lfoot -11.2268 -7.12572
ltoes 8.91359
64
root -10.4091 17.2392 -17.4603 -0.0772371 -2.34356 3.36745
lowerback 7.00882 1.3375 -3.13496
upperback 0.451705 1.5602 0.745051
thorax -3.56856 0.830057 2.37581
lowerneck -15.244 -2.32036 -10.8312
upperneck 22.7495 -1.47866 4.24632
head 9.87367 -1.13426 3.11566
rclavicle 6.41081e-015 2.38542e-015
rhumerus -34.082 -14.8911 -77.0022
rradius 37.527
rwrist 0.339304
rhand -13.9865 13.2364
rfingers 7.12502
rthumb 12.1421 -16.3913
lclavicle 6.41081e-015 2.38542e-015
lhumerus -40.0297 19.9156 77.8353
lradius 27.7613
lwrist -6.456
lhand -24.1803 19.9931
lfingers 7.12502
lthumb 2.30319 49.9605
rfemur -22.6992 -1.63188 14.2843
rtibia 73.6834
rfoot -5.17845 -6.18605
rtoes 5.43933
lfemur -17.0626 -6.65653 -31.3151
ltibia 33.6799
lfoot -11.9923 -6.79674
ltoes 8.84002
65
root -10.4023 17.232 -17.2337 -0.173344 -2.0917 3.39568
lowerback 7.16842 1.28807 -3.01102
upperback 0.455448 1.49435 0.61689
thorax -3.64302 0.795316 2.17709
lowerneck -15.267 -2.21734 -10.5813
upperneck 22.8761 -1.43607 4.39847
head 9.91487 -1.07841 3.13642
rclavicle 2.04748e-014 -1.19271e-015
rhumerus -34.2945 -15.2725 -77.0583
rradius 36.6643
rwrist 1.12211
rhand -14.05 13.5551
rfingers 7.12502
rthumb 12.0809 -16.0762
lclavicle 2.04748e-014 -1.19271e-015
lhumerus -39.6009 18.6086 78.4382
lradius 28.9917
lwrist -5.5596
lhand -23.7948 21.435
lfingers 7.12502
lthumb 2.6755 51.398
rfemur -24.1027 -1.60701 14.2869
rtibia 73.0756
rfoot -5.83916 -6.36051
rtoes 4.98445
lfemur -16.295 -6.68947 -31.616
ltibia 34.0555
lfoot -12.625 -6.5621
ltoes 8.71409
66
root -10.405 17.2212 -17.019 -0.147765 -1.66907 3.46972
lowerback 7.15479 1.22334 -3.55795
upperback 0.632666 1.3777 0.912794
thorax -3.46504 0.742812 2.80631
lowerneck -15.2207 -2.19507 -10.3359
upperneck 22.387 -1.34733 3.90293
head 9.72207 -1.06043 2.92184
rclavicle -1.55549e-014 -2.38542e-015
rhumerus -34.0795 -15.228 -76.7281
rradius 35.8027
rwrist 1.76996
rhand -14.4719 13.9788
rfingers 7.12502
rthumb 11.674 -15.6759
lclavicle -1.55549e-014 -2.38542e-015
lhumerus -38.6944 17.9141 79.5922
lradius 29.9161
lwrist -4.75992
lhand -23.752 21.9505
lfingers 7.12502
lthumb 2.7169 51.9129
rfemur -25.5435 -1.6378 14.2869
rtibia 72.2872
rfoot -6.51841 -6.62228
rtoes 3.89409
lfemur -15.7076 -6.55633 -31.9011
ltibia 34.552
lfoot -13.2415 -6.47773
ltoes 9.09748
67
root -10.4079 17.1936 -16.8111 0.071904 -1.15882 3.60129
lowerback 6.00881 1.02779 -3.82341
upperback 1.45305 1.15334 0.947512
thorax -1.96442 0.592401 3.03679
lowerneck -15.6784 -2.2692 -10.3357
upperneck 21.6245 -1.38684 3.87267
head 9.54158 -1.05977 2.89343
rclavicle 3.47873e-015 -1.03368e-014
rhumerus -32.6873 -15.3539 -77.1124
rradius 34.976
rwrist 2.28699
rhand -14.825 13.4179
rfingers 7.12502
rthumb 11.3335 -16.2559
lclavicle 3.47873e-015 -1.03368e-014
lhumerus -36.5828 17.5769 80.562
lradius 30.6851
lwrist -4.1088
lhand -23.8097 22.7276
lfingers 7.12502
lthumb 2.66118 52.6908
rfemur -27.2761 -1.6575 14.2206
rtibia 71.3591
rfoot -7.56387 -6.79795
rtoes 1.52824
lfemur -15.3729 -6.52704 -32.2069
ltibia 35.0538
lfoot -13.7443 -6.53942
ltoes 10.4754
68
root -10.4053 17.1664 -16.5986 0.20645 -0.553411 3.66647
lowerback 5.69139 -0.288073 -5.17508
upperback 0.092982 -0.655872 2.16202
thorax -3.01677 -0.236882 5.21621
lowerneck -10.1885 -0.746488 -12.7484
upperneck 20.3883 0.528464 3.94711
head 7.9682 -0.339306 3.49082
rclavicle 4.17448e-015 4.77083e-015
rhumerus -34.836 -10.0863 -76.641
rradius 34.5323
rwrist 2.0171
rhand -14.5281 12.169
rfingers 7.12502
rthumb 11.6198 -17.4889
lclavicle 4.17448e-015 4.77083e-015
lhumerus -40.7296 20.2858 79.883
lradius 32.7226
lwrist -3.17791
lhand -23.5658 22.6628
lfingers 7.12502
lthumb 2.89673 52.6228
rfemur -28.7748 -1.73766 14.1618
rtibia 70.1271
rfoot -8.89473 -6.87125
rtoes -2.02311
lfemur -14.8502 -6.68151 -32.5051
ltibia 35.4868
lfoot -14.1468 -6.47169
ltoes 11.9216
69
root -10.3985 17.1502 -16.3764 0.413657 0.0529971 3.99248
lowerback 5.7579 0.72038 -4.34137
upperback 1.52006 0.723858 0.888808
thorax -1.72511 0.373732 3.30408
lowerneck -16.1108 -2.57088 -11.0172
upperneck 22.0163 -1.70875 4.41296
head 9.799 -1.21113 3.16229
rclavicle 6.26172e-015 -9.54166e-015
rhumerus -32.8317 -15.4338 -77.0997
rradius 33.9915
rwrist 2.7168
rhand -14.4308 11.1632
rfingers 7.12502
rthumb 11.7137 -18.4893
lclavicle 6.26172e-015 -9.54166e-015
lhumerus -35.6931 15.6884 81.5908
lradius 33.3003
lwrist -2.16391
lhand -23.1655 22.4992
lfingers 7.12502
lthumb 3.28323 52.4536
rfemur -30.1029 -1.91661 13.7388
rtibia 68.6053
rfoot -9.69367 -6.78852
rtoes -3.79923
lfemur -14.2161 -6.76656 -33.1207
ltibia 35.7762
lfoot -14.7072 -6.25679
ltoes 11.7186
70
root -10.3943 17.1473 -16.1493 0.575828 0.683506 4.07965
lowerback 5.78103 0.569552 -4.48136
upperback 1.44578 0.51236 0.873857
thorax -1.79663 0.271709 3.38279
lowerneck -16.1028 -2.43893 -10.4851
upperneck 21.8004 -1.58851 4.09404
head 9.70166 -1.14171 2.97291
rclavicle 6.85807e-015 -6.36111e-015
rhumerus -33.2558 -15.3809 -77.0505
rradius 33.7569
rwrist 2.67873
rhand -14.3227 10.502
rfingers 7.12502
rthumb 11.8179 -19.1445
lclavicle 6.85807e-015 -6.36111e-015
lhumerus -35.512 14.7468 81.9021
lradius 34.5802
lwrist -1.29721
lhand -23.0246 22.3052
lfingers 7.12502
lthumb 3.4193 52.2576
rfemur -31.1468 -1.92916 13.5908
rtibia 66.6832
rfoot -9.97517 -6.83635
rtoes -4.38119
lfemur -13.4821 -6.80813 -33.4289
ltibia 35.8937
lfoot -15.3292 -6.11462
ltoes 11.6345
71
root -10.3935 17.145 -15.9304 0.638512 1.44145 4.10958
lowerback 5.93037 0.304453 -4.6713
upperback 1.4892 0.143616 0.952373
thorax -1.80143 0.0877493 3.59867
lowerneck -16.3846 -2.32129 -10.5263
upperneck 21.8436 -1.38534 4.11735
head 9.75333 -1.04713 3.01546
rclavicle -1.43125e-014 -7.95139e-016
rhumerus -33.4518 -15.0507 -77.0874
rradius 33.5885
rwrist 2.75875
rhand -14.0024 10.3307
rfingers 7.12502
rthumb 12.1268 -19.2978
lclavicle -1.43125e-014 -7.95139e-016
lhumerus -35.22 14.306 82.1499
lradius 35.8536
lwrist -0.645468
lhand -22.7332 22.3505
lfingers 7.12502
lthumb 3.70071 52.2982
rfemur -31.9378 -1.9008 13.4555
rtibia 64.4237
rfoot -10.0761 -6.95322
rtoes -3.70625
lfemur -12.5943 -7.13744 -33.6352
ltibia 35.7979
lfoot -15.656 -6.06094
ltoes 11.8003
72
root -10.3903 17.1397 -15.7153 0.781693 2.11376 4.10273
lowerback 6.03368 0.132823 -4.74292
upperback 1.48432 -0.0939447 0.963898
thorax -1.8408 -0.0293812 3.66914
lowerneck -16.4307 -2.45065 -10.9353
upperneck 21.9423 -1.52284 4.41627
head 9.81485 -1.11292 3.17324
rclavicle -5.96354e-016 -2.38542e-015
rhumerus -33.7538 -15.2319 -77.0703
rradius 33.4131
rwrist 2.81356
rhand -13.68 9.35297
rfingers 7.12502
rthumb 12.4377 -20.257
lclavicle -5.96354e-016 -2.38542e-015
lhumerus -34.8541 13.7103 82.3985
lradius 37.1652
lwrist -0.0879057
lhand -22.4875 23.804
lfingers 7.12502
lthumb 3.93799 53.7473
rfemur -32.7151 -1.74532 13.3217
rtibia 61.8577
rfoot -10.0046 -7.20037
rtoes -3.56374
lfemur -11.7433 -7.58552 -33.7916
ltibia 35.5946
lfoot -15.9053 -6.07737
ltoes 12.1501
